<svg xmlns="http://www.w3.org/2000/svg"><style>:root svg:not(:target){display:none}</style><svg viewBox="0 0 50 50" fill="none" id="building-icon"><path d="M19.05 0c-3.58 7.72-12.18 1.3-16.67 5.95 1.05-8 8.02-1.55 16.67-5.95Zm-10.72 7.14v14.59l8.34 4.46v-8.33l16.66 8.33v-8.33l16.67 8.33v23.81h-50v-42.86h8.33Zm35.12 26.79h-8.33v7.14h8.33v-7.14Zm-14.28 0h-8.34v7.14h8.34v-7.14Zm-14.29 0h-8.33v7.14h8.33v-7.14Z" fill="#0B7572"></path></svg><svg viewBox="0 0 67 39" fill="none" id="delivery-icon"><path d="m21.76 30.36 20.58 8.6v-20.95l-20.58-7.65v20Zm36.38-10.96-5.73 2.06v-5.8l-7.57 2.64v20.66l21.31-8.6v-19.63l-8.01 2.87v5.8Zm-6.84 14.85-.88.37v-4.63l.88-.3v4.56Zm1.55-.59-.89.37v-4.63l.89-.3v4.56Zm3.08-1.25-.88.3v-4.56l.88-.3v4.56Zm1.55-.66-.88.37v-4.48l.88-.3v4.41Zm3.08-5.66.89-.3v4.35l-.89.36v-4.4Zm-1.76.66.88-.29v4.41l-.88.37v-4.49Zm-.66-16.02 8.01-2.94-22.2-7.79-7.13 2.5 21.32 8.08v.15Zm-27.64-6.03-8.74 3.1 22.2 8.08 8.37-3.02-21.83-8.16Zm-30.5 23.74h18.23v-3.67h-16.54l-1.69 3.67Zm3.01-6.46h15.22v-3.68h-13.53l-1.69 3.68Zm3.02-6.69v.3h12.2v-3.68h-10.59l-1.61 3.38Z" fill="#0B7572"></path></svg><svg viewBox="0 0 44 44" fill="none" id="dollar-icon"><path fill-rule="evenodd" clip-rule="evenodd" d="M9.54 9.54a17.58 17.58 0 0 1 24.92 0 17.58 17.58 0 0 1 0 24.92 17.58 17.58 0 0 1-24.92 0 17.58 17.58 0 0 1 0-24.92Zm34.46 12.46a21.9 21.9 0 0 0-6.45-15.55 21.93 21.93 0 0 0-15.55-6.45 21.93 21.93 0 0 0-15.55 6.45 21.93 21.93 0 0 0-6.45 15.55 21.9 21.9 0 0 0 6.45 15.55 21.93 21.93 0 0 0 15.55 6.45 21.9 21.9 0 0 0 15.55-6.45 21.93 21.93 0 0 0 6.45-15.55Z" fill="#0B7572"></path><path fill-rule="evenodd" clip-rule="evenodd" d="M16.91 16.99c0-1.56.55-2.83 1.66-3.79a5.75 5.75 0 0 1 3.3-1.2v-1.04h1.29v1.05a5.5 5.5 0 0 1 3.03 1.11c.97.8 1.54 1.9 1.73 3.29l-2.27.34a3.7 3.7 0 0 0-.8-1.98c-.4-.45-.98-.76-1.69-.9v6.32c1.1.27 1.84.5 2.2.65.67.3 1.23.66 1.66 1.1.43.42.76.94 1 1.53.23.6.35 1.24.35 1.92a5.27 5.27 0 0 1-5.2 5.44v2.22h-1.3v-2.19a8.08 8.08 0 0 1-2.68-.74 4.68 4.68 0 0 1-1.78-1.7c-.5-.8-.79-1.76-.87-2.9l2.21-.4c.17 1.17.47 2.04.9 2.59a3.22 3.22 0 0 0 2.22 1.3v-6.98a9.33 9.33 0 0 1-2.77-1.04c-.7-.4-1.23-.93-1.61-1.63a4.8 4.8 0 0 1-.57-2.35v-.02Zm21.25 5.01c0-4.46-1.8-8.5-4.74-11.42a16.1 16.1 0 0 0-22.84 0 16.1 16.1 0 0 0 0 22.84 16.1 16.1 0 0 0 22.84 0 16.1 16.1 0 0 0 4.74-11.42Z" fill="#0B7572"></path><path fill-rule="evenodd" clip-rule="evenodd" d="M21.86 19.9v-6.06c-.85.12-1.53.47-2.02 1.02s-.74 1.2-.74 1.97c0 .74.21 1.37.63 1.87.42.5 1.13.91 2.12 1.2h.01Zm4.24 5.63c0-.79-.2-1.43-.6-1.91a5.12 5.12 0 0 0-2.36-1.3v6.68c.85-.1 1.56-.48 2.12-1.11.56-.64.83-1.42.83-2.36Z" fill="#0B7572"></path></svg><svg viewBox="0 0 28 18" fill="none" id="email-icon"><path d="M2.05 0c-.4 0-.77.12-1.09.32l12.12 10.25c.56.47 1.3.47 1.86 0l12.1-10.25c-.32-.2-.69-.32-1.09-.32h-23.9Zm-1.93 1.38c-.08.2-.12.43-.12.67v13.66c0 .4.12.79.33 1.1l8.68-7.9-8.9-7.53Zm27.76 0-8.86 7.52 8.65 7.92c.2-.32.33-.7.33-1.11v-13.66c0-.24-.04-.46-.12-.67Zm-9.91 8.42-2.16 1.82a2.8 2.8 0 0 1-3.61 0l-2.15-1.81-8.6 7.85c.18.06.39.1.6.1h23.9c.21 0 .42-.04.6-.1l-8.58-7.86Z" fill="#0B7572"></path></svg><svg viewBox="0 0 21 19" fill="none" id="file-icon"><path d="M19.42 1.6a5.34 5.34 0 0 0-7.63 0l-10.69 10.85a3.88 3.88 0 0 0 0 5.43 3.74 3.74 0 0 0 5.35 0l10.68-10.85c.84-.85.84-2.25 0-3.1a2.14 2.14 0 0 0-3.05 0l-9.16 9.3a.55.55 0 0 0-.12.6.55.55 0 0 0 .3.3.53.53 0 0 0 .58-.13l9.16-9.3c.43-.43 1.1-.43 1.53 0a1.1 1.1 0 0 1 0 1.55l-10.69 10.85a2.65 2.65 0 0 1-3.81 0 2.75 2.75 0 0 1 0-3.87l10.68-10.85a4.25 4.25 0 0 1 6.1 0 4.41 4.41 0 0 1 0 6.2l-9.15 9.3a.55.55 0 0 0-.12.6.55.55 0 0 0 .3.3.53.53 0 0 0 .58-.13l9.16-9.3a5.54 5.54 0 0 0 0-7.75Z" fill="#fff"></path></svg><svg viewBox="0 0 20 19" fill="none" id="file-image-icon"><path fill-rule="evenodd" clip-rule="evenodd" d="M8 3.75c0 .41-.34.75-.75.75h-6.5a.75.75 0 0 1 0-1.5h6.5c.41 0 .75.34.75.75Z" fill="#fff"></path><path fill-rule="evenodd" clip-rule="evenodd" d="M0 18v-15h1.5v15h-1.5Z" fill="#fff"></path><path fill-rule="evenodd" clip-rule="evenodd" d="M16 19h-16v-1.5h16v1.5Z" fill="#fff"></path><path fill-rule="evenodd" clip-rule="evenodd" d="M15.25 19a.75.75 0 0 1-.75-.75v-6.5a.75.75 0 0 1 1.5 0v6.5c0 .41-.34.75-.75.75Zm.5-19c.41 0 .75.34.75.75v6.5a.75.75 0 0 1-1.5 0v-6.5c0-.41.34-.75.75-.75Z" fill="#fff"></path><path fill-rule="evenodd" clip-rule="evenodd" d="M20 3.75c0 .41-.34.75-.75.75h-6.5a.75.75 0 0 1 0-1.5h6.5c.41 0 .75.34.75.75Z" fill="#fff"></path></svg><svg viewBox="0 0 703 872" fill="none" id="hieroglyph-icon"><path d="M636.25 861.71c-47.02-16.51-133.36-77.67-133.36-94.46 0-2.87-10.72-23.6-23.82-46.05-14.64-25.09-31.3-70.58-43.22-117.98-17.5-69.56-19.33-88.36-18.7-191.12.62-98.39-.76-113.97-10.08-113.97-17.7 0-137.36 28.14-150.48 35.38-6.68 3.69-16.71 6.7-22.3 6.7-20.95 0-17.45 13.63 6.41 25l24.73 11.76-3.63 39.48c-2 21.72-5.43 48.17-7.64 58.77-4.75 22.82-6 22.65 57.4 7.78 54.9-12.88 73.22-10.3 68.04 9.57-2.63 10.1-14.99 14.8-56.31 21.4-67.77 10.81-74.64 16.5-69.27 57.38 2.3 17.53 6.12 73.6 8.5 124.59l4.3 92.71-18.55 8.48c-37.75 17.26-66.95-8.23-86.49-75.5-10.83-37.27-10.77-37.75 4.84-37.75 17.25 0 21.5-12.59 26.58-78.59l4.2-54.67-30.74.53c-16.9.3-41.56 4.46-54.79 9.25-25.53 9.26-37.13 25.29-18.3 25.29 32.8 0 33.73 120.05 1.1 141.91-16.05 10.76-39.06 4.99-50.6-12.68-11.24-17.21-11.05-19.58 4.21-50.85 34.32-70.34 31.77-89.47-11.57-86.79-54.05 3.35-47.31-10.24 12.94-26.1 85.73-22.58 82.05-20.22 60.69-38.76-18.98-16.48-40.83-52.66-40.83-67.6 0-5.82 9.42-7.03 31.3-4.02 44.07 6.06 59.19 17.55 64.19 48.78 3.12 19.47 7.3 26.05 15.55 24.45 13.54-2.61 16.13-35 6.88-86.02-9.8-54.08-16.13-57.47-81.13-43.46-64.56 13.92-66.67 14.06-63.34 4.02 2.95-8.88 14.87-13.55 176.84-69.28 65.35-22.48 140.43-49.07 166.84-59.07 50.28-19.05 106.83-23.75 130.81-10.87 13.33 7.16 13.27 7.83-2.82 29.8-9.05 12.37-21.69 34.02-28.08 48.1-11.9 26.24-26.5 110.38-20.81 120.03 1.74 2.95 4.85 25.05 6.9 49.1 4.44 51.72 43.66 175.76 67.62 213.84 16.92 26.9 62.99 71.84 73.63 71.84 11.67 0 42.78-48.38 42.78-66.53 0-22.44 15.46-9 31.5 27.38 17.99 40.82 19.77 86.25 4.49 114.55-9.94 18.4-15.03 18.79-56.4 4.25Zm-266.92-164.44c-22.66-12.34-93.45-80.42-93.72-90.14-.06-2.15-2.73-8.06-5.94-13.14-9.47-14.98-1.17-16.72 42.06-8.77 54.28 9.96 93.76 37.88 106.87 75.56 8.34 23.97 8.49 30.86.89 40.05-11.57 13.99-18.86 13.47-50.16-3.56Zm-85.07-281.66c2.04-16.4 5.73-32.08 8.2-34.86 4.28-4.8 75.21 10.82 82.54 18.17 7.63 7.65-6.21 16.96-37.94 25.53-18.36 4.95-36.37 11.7-40.02 14.99-13.09 11.78-16.44 5.52-12.79-23.83Zm-137.86-173.14c5.77-3.38 37.22-14.13 69.9-23.89 32.68-9.76 78.29-25.76 101.36-35.56 42.85-18.2 68.8-21.52 107.47-13.76 32.16 6.46 26.63 21.37-11.36 30.6-18.26 4.43-58.37 14-89.12 21.26-30.76 7.26-66.91 16.51-80.34 20.56-30.06 9.06-113.17 9.73-97.9.79Zm-40.19-56.77c-19.92-8.03-19.75-9.94 3.5-40.88 44.67-59.47 73.95-122.29 69.9-150l-3.05-20.82 33.28 4.43c18.3 2.44 43.22 7.9 55.36 12.15 19.21 6.72 21.5 10.12 17.63 26.14-5.38 22.3-46.32 92.05-54.02 92.05-3.04 0-5.52 4.8-5.52 10.65 0 14.61 22.29 8.43 105.68-29.31 70.6-31.96 111.6-38.3 135.28-20.93 23.3 17.1 8.58 32.58-31.01 32.58-19.33 0-53.24 6.03-75.36 13.4-22.12 7.38-66.63 17.3-98.9 22.06-35.22 5.19-63.26 13.24-70.13 20.14-10.14 10.17-58.08 36.3-64.47 35.13-1.35-.25-9.52-3.3-18.17-6.79Z" fill="#fff" fill-opacity=".08"></path></svg><svg viewBox="0 0 22 22" fill="none" id="instagram-icon"><path d="M16.04 0h-10.08a5.96 5.96 0 0 0-5.96 5.96v10.09a5.96 5.96 0 0 0 5.96 5.95h10.09a5.96 5.96 0 0 0 5.95-5.95v-10.1a5.96 5.96 0 0 0-5.96-5.95Zm-5.04 17.02a6.02 6.02 0 1 1 .01-12.05 6.02 6.02 0 0 1-.01 12.05Zm6.16-10.62a1.78 1.78 0 1 1 0-3.56 1.78 1.78 0 0 1 0 3.56Z" fill="#BFBFC7"></path><path d="M11 7.33a3.67 3.67 0 1 0 0 7.34 3.67 3.67 0 0 0 0-7.34Zm6.16-3.19a.49.49 0 1 0 0 .97.49.49 0 0 0 0-.97Z" fill="#BFBFC7"></path></svg><svg viewBox="0 0 23 23" fill="none" id="linkedin-icon"><path d="M23 23v-8.3c0-4.06-.88-7.18-5.68-7.18a4.98 4.98 0 0 0-4.48 2.43h-.06v-2.06h-4.55v15.1h4.73v-7.47c0-1.97.38-3.87 2.84-3.87 2.43 0 2.47 2.24 2.47 4v7.35h4.72Zm-22.62-15.1h4.74v15.1h-4.74v-15.1Zm2.36-7.9a2.73 2.73 0 1 0 0 5.46 2.73 2.73 0 1 0 0-5.46Z" fill="#BFBFC7"></path></svg><svg viewBox="0 0 44 50" fill="none" id="location-icon"><path fill-rule="evenodd" clip-rule="evenodd" d="M4.29 14.01a21.93 21.93 0 0 0-4.29 13.06c0 4.9 1.6 9.41 4.29 13.06a45.7 45.7 0 0 1 9.13-2.28 57.43 57.43 0 0 1-.82-15.99l-.74 1.2-5.23-8.25c-.8-.24-1.6-.51-2.34-.79Zm8.33 25.43c-2.66.46-5.14 1.1-7.37 1.9a21.88 21.88 0 0 0 13 7.41 15.71 15.71 0 0 1-3.22-5.34 33.56 33.56 0 0 1-1.3-4.15l-1.1.18Zm2.58-.37a31.3 31.3 0 0 0 1.2 3.8c1.5 3.83 3.48 6.2 5.6 6.2 2.14 0 4.12-2.37 5.62-6.2.45-1.14.85-2.42 1.2-3.8a57.72 57.72 0 0 0-13.6 0h-.02Zm-1.36-12.01c0 3.83.37 7.44 1.03 10.57a59.3 59.3 0 0 1 14.27 0 51.89 51.89 0 0 0 1.04-10.57c0-3.82-.37-7.43-1.04-10.56a59.3 59.3 0 0 1-13.32.1l-.89 1.45-.49.8c-.39 2.54-.6 5.3-.6 8.22Zm2.83-11.84a56.8 56.8 0 0 0 12.13-.16 31.28 31.28 0 0 0-1.2-3.81c-1.5-3.83-3.48-6.2-5.61-6.2-.63 0-1.26.22-1.86.62.03.18.05.37.06.56v.11l.03.29v.36a10 10 0 0 1-1.59 4.98l-1.98 3.24.02.01Zm12.3-4.5c.5 1.25.92 2.64 1.3 4.14a44.04 44.04 0 0 0 8.49-2.07 21.97 21.97 0 0 0-13-7.42 15.7 15.7 0 0 1 3.22 5.34v.01Zm1.61 5.58a53.36 53.36 0 0 1 1.05 10.76c0 3.89-.38 7.55-1.05 10.77.35.05.7.1 1.04.17a45.7 45.7 0 0 1 8.1 2.12 21.93 21.93 0 0 0 4.28-13.07c0-4.89-1.6-9.4-4.29-13.06a45.7 45.7 0 0 1-9.13 2.28v.02Zm-.31 22.97a32 32 0 0 1-1.3 4.14 15.68 15.68 0 0 1-3.21 5.35 21.89 21.89 0 0 0 12.98-7.43 44.98 44.98 0 0 0-8.48-2.07v.01Zm-16.2-31.17a3.3 3.3 0 1 1-4.66-4.66 3.3 3.3 0 1 1 4.66 4.66Zm-.33 9.1-.05.08.05-.08Zm5-10.83v.02-.02Zm-11.96-4.34a7 7 0 0 0-2.06 4.97c0 1.18.64 2.82 1.58 4.6l.04.02c.05.05.1.1.12.17l.64 1 .02.02 4.74 7.48 1.02-1.65.06-.1.76-1.24.06-.1 3.67-5.98c.82-1.64 1.37-3.13 1.37-4.21v-.3l-.02-.23-.01-.06v-.02a7.02 7.02 0 0 0-11.97-4.34l-.02-.03Z" fill="#0B7572"></path></svg><svg viewBox="0 0 44 47" fill="none" id="lock-icon"><path fill-rule="evenodd" clip-rule="evenodd" d="M42.22 13.84h-40.43a1.8 1.8 0 0 0-1.79 1.8v28.87a1.8 1.8 0 0 0 1.79 1.79h40.43a1.78 1.78 0 0 0 1.78-1.79v-28.88a1.8 1.8 0 0 0-1.78-1.79Zm-19.37 18.78v9.27a.84.84 0 0 1-1.68 0v-9.27a2.3 2.3 0 0 1 .83-4.45 2.3 2.3 0 0 1 .85 4.45Z" fill="#0B7572"></path><path fill-rule="evenodd" clip-rule="evenodd" d="M39.95 17.4a17.9 17.9 0 0 0-5.25-12.14 17.9 17.9 0 0 0-25.39 0 17.9 17.9 0 0 0-5.25 12.14h35.89Zm-3.8-3.3a14.5 14.5 0 0 0-3.79-6.5 14.6 14.6 0 0 0-10.36-4.3c-3.9 0-7.6 1.55-10.36 4.3a14.55 14.55 0 0 0-3.77 6.5h28.27Z" fill="#0B7572"></path></svg><svg viewBox="0 0 24 32" fill="none" id="phone-icon"><path d="m11 6.7-3.36-5.83c-.86-1.48-2.34-.62-2.34-.62l-2.08 1.2 5.08 8.78 2.08-1.2c1.48-.85.62-2.33.62-2.33Zm8.62 24.84-5.07-8.8c-1.25.73-2.4-.6-3.46-2.04a32.94 32.94 0 0 1-3.48-6.02c-.71-1.64-1.25-3.33-.04-4.02l-5.08-8.8c-1.78 1.04-5.34 6.54 1.73 18.79 7.1 12.29 13.62 11.92 15.4 10.89Zm3.44-3.96-3.37-5.83c-.85-1.48-2.34-.62-2.34-.62l-2.07 1.2 5.08 8.79 2.07-1.2c1.48-.86.63-2.34.63-2.34Z" fill="#0B7572"></path></svg><svg viewBox="0 0 80 80" fill="none" id="play-icon"><circle cx="40" cy="40" r="40" fill="#fff" fill-opacity=".8"></circle><path d="M52.86 38.7c1 .58 1 2.02 0 2.6l-18.17 10.49a1.5 1.5 0 0 1-2.25-1.3v-20.98a1.5 1.5 0 0 1 2.25-1.3l18.17 10.5Z" fill="#0B7572" stroke="#0B7572" stroke-width="3"></path></svg><svg viewBox="0 0 40 50" fill="none" id="schedule-icon"><path fill-rule="evenodd" clip-rule="evenodd" d="M6.17 36.75h6.9c.45 0 .82.36.82.82v6.9c0 .45-.37.82-.82.82h-6.9a.82.82 0 0 1-.82-.82v-6.9c0-.46.36-.82.82-.82Zm27.44-9.64h-12.65a.82.82 0 1 1 0-1.65h12.65a.82.82 0 1 1 0 1.65Zm-19.2-16.73-6.46 6.46a.82.82 0 0 1-1.3-.15l-1.96-3.39a.82.82 0 0 1 .3-1.12.82.82 0 0 1 1.12.3l1.42 2.47 5.71-5.72a.82.82 0 0 1 1.16 0c.32.32.32.84 0 1.16Zm-4.22-10.38h-9.37a.82.82 0 0 0-.82.82v47.85c0 .46.37.83.82.83h37.38c.45 0 .82-.37.82-.83v-47.85a.82.82 0 0 0-.82-.82h-9.37v4.48c0 .45-.37.82-.82.82h-17a.82.82 0 0 1-.82-.82v-4.48Zm9.95 41.02c0-.46.36-.82.82-.82h12.65a.82.82 0 1 1 0 1.64h-12.65a.82.82 0 0 1-.82-.82Zm-5.74-17.38-6.45 6.45a.82.82 0 0 1-1.3-.15l-1.96-3.38a.82.82 0 0 1 .3-1.13.82.82 0 0 1 1.12.3l1.42 2.47 5.71-5.71a.82.82 0 0 1 1.16 0c.32.32.32.84 0 1.16v-.01Zm6.56-9.79a.82.82 0 1 1 0-1.64h12.65a.82.82 0 1 1 0 1.64h-12.65Z" fill="#0B7572"></path><path fill-rule="evenodd" clip-rule="evenodd" d="M28 .03h-16.99v4.45h17v-4.45Z" fill="#0B7572"></path></svg><svg viewBox="0 0 28 28" fill="none" id="skype-icon"><path d="M27 16.34a13.37 13.37 0 0 0-.82-7.56 13.2 13.2 0 0 0-14.68-7.86 7.82 7.82 0 0 0-10.52 10.73 13.4 13.4 0 0 0 .85 7.44 13.2 13.2 0 0 0 14.5 7.9 7.8 7.8 0 0 0 11.67-6.84c0-1.33-.34-2.65-1-3.81Zm-12.94 5.71c-4.7 0-6.8-2.31-6.8-4.05 0-.89.66-1.51 1.56-1.51 2.01 0 1.49 2.9 5.24 2.9 1.92 0 2.98-1.05 2.98-2.12 0-.65-.32-1.36-1.58-1.67l-4.18-1.05c-3.36-.84-3.97-2.67-3.97-4.38 0-3.56 3.34-4.9 6.48-4.9 2.89 0 6.3 1.6 6.3 3.74 0 .92-.8 1.45-1.7 1.45-1.71 0-1.4-2.38-4.85-2.38-1.71 0-2.66.78-2.66 1.9 0 1.1 1.35 1.46 2.53 1.73l3.09.68c3.39.76 4.24 2.74 4.24 4.61 0 2.9-2.21 5.05-6.68 5.05Z" fill="#0B7572"></path></svg><svg viewBox="0 0 15 20" fill="none" id="technical-file-icon"><path d="m9.62.2-.25-.2h-7.3c-1.15 0-2.07.93-2.07 2.08v15.84c0 1.15.92 2.08 2.06 2.08h10.88c1.13 0 2.06-.93 2.06-2.08v-12.22c0-.43 0-1.08-5.38-5.5Zm.19 2.54a45.22 45.22 0 0 1 3.11 2.86h-3.11v-2.86Zm3.13 15.43h-10.88a.24.24 0 0 1-.24-.25v-15.84c0-.14.1-.25.24-.25h5.93v4.68c0 .51.4.92.9.92h4.3v10.5c0 .13-.12.24-.25.24Z" fill="#737587"></path></svg><svg viewBox="0 0 47 50" fill="none" id="vehicle-icon"><path d="M38.28 32.72h-29.64a4.33 4.33 0 0 0-3.08-4.16v-20.1a4.17 4.17 0 0 0 2.89-2.9h13.89a4.3 4.3 0 0 0 2.9 2.9v6.48l-2.6 2.62-1.39-1.4a1.22 1.22 0 0 0-2 .4 1.24 1.24 0 0 0 .27 1.36l1.39 1.39-1.4 1.38a1.24 1.24 0 0 0 1.35 2.02c.15-.06.28-.15.4-.27l1.38-1.38 2.96 2.95a1.22 1.22 0 0 0 1.74 0l3.07-2.97 1.39 1.39a1.24 1.24 0 1 0 1.73-1.75l-1.39-1.39 1.4-1.39a1.24 1.24 0 0 0-1.35-2.02c-.14.07-.28.16-.4.27l-1.38 1.4-2.59-2.6v-6.5a4.32 4.32 0 1 0-5.37-5.37h-13.89a4.32 4.32 0 1 0-5.47 5.38v20.12a4.33 4.33 0 0 0-3.09 4.17v8.64a8.65 8.65 0 0 0 8.64 8.61h29.64a8.64 8.64 0 1 0 0-17.28Zm-9.72-13.43-2.03 2.1-2.07-2.1 2.07-2.08 2.03 2.08Zm9.72 25.77a3.7 3.7 0 1 1-.02-7.42 3.7 3.7 0 0 1 .02 7.42Zm-33.33-3.7a3.7 3.7 0 1 1 7.42-.03 3.7 3.7 0 0 1-7.42.03Zm27.15 0a3.7 3.7 0 1 1-7.41 0 3.7 3.7 0 0 1 7.41 0Zm-9.87 0a3.7 3.7 0 1 1-7.42 0 3.7 3.7 0 0 1 7.42 0Z" fill="#0B7572"></path><path d="M8.64 42.6a1.24 1.24 0 1 0 0-2.47 1.24 1.24 0 0 0 0 2.47Zm9.88 0a1.24 1.24 0 1 0 0-2.47 1.24 1.24 0 0 0 0 2.47Zm9.88 0a1.24 1.24 0 1 0 0-2.47 1.24 1.24 0 0 0 0 2.47Zm9.88 0a1.24 1.24 0 1 0 0-2.47 1.24 1.24 0 0 0 0 2.47Z" fill="#0B7572"></path></svg><svg viewBox="0 0 33 19" fill="none" id="vk-icon"><path d="M27.38 10.9c-.53-.67-.38-.97 0-1.56.01 0 4.42-6.01 4.87-8.05.23-.74 0-1.29-1.09-1.29h-3.6c-.93 0-1.35.47-1.58 1 0 0-1.83 4.33-4.43 7.15-.84.8-1.23 1.07-1.69 1.07-.22 0-.57-.26-.57-1v-6.93c0-.9-.26-1.29-1.02-1.29h-5.67c-.58 0-.92.42-.92.8 0 .85 1.3 1.04 1.43 3.42v5.15c0 1.13-.2 1.34-.67 1.34-1.22 0-4.2-4.36-5.96-9.35-.36-.97-.7-1.36-1.63-1.36h-3.61c-1.03 0-1.24.47-1.24 1 0 .92 1.23 5.52 5.7 11.6 2.99 4.15 7.19 6.4 11.01 6.4 2.3 0 2.58-.5 2.58-1.36 0-3.96-.2-4.34.94-4.34.54 0 1.46.26 3.6 2.26 2.45 2.38 2.86 3.44 4.23 3.44h3.6c1.03 0 1.56-.5 1.26-1.48-.69-2.08-5.33-6.34-5.54-6.62Z" fill="#BFBFC7"></path></svg><svg viewBox="0 0 28 28" fill="none" id="whatsapp-icon"><path fill-rule="evenodd" clip-rule="evenodd" d="M14 0a13.99 13.99 0 0 0-11.53 21.94.7.7 0 0 1 .09.6l-1.42 4.76 4.66-1.6a.7.7 0 0 1 .6.07 13.99 13.99 0 0 0 21.6-11.77c0-7.74-6.26-14-14-14Zm-5.73 6.1 2.55 4.21-1.06 1.05a.7.7 0 0 0-.11.85c1.62 2.8 3.53 4.98 6.22 6.16a.7.7 0 0 0 .78-.14l1.12-1.12 4.12 2.57a3.89 3.89 0 0 1-1.73 1.99 4.2 4.2 0 0 1-2.85.26c-2.19-.45-4.84-2.18-7-4.39-2.15-2.2-3.82-4.89-4.25-7.07a4.11 4.11 0 0 1 .28-2.78c.35-.64.94-1.2 1.93-1.59Z" fill="#0B7572"></path></svg></svg>