<svg viewBox="0 0 150 72" fill="none" xmlns="http://www.w3.org/2000/svg"><path d="M46.26 47.07h9.5v3.1h-4.52v21.83h-4.98v-24.93Zm15.14 15.57.85-12.46h.29l.85 12.46h-2Zm-5.52 9.36h4.88l.46-6.62h2.35l.46 6.62h4.88l-2.6-24.93h-7.83l-2.6 24.93Zm20.17-8.72v4.7c0 .63.49.81.77.81a.8.8 0 0 0 .8-.82v-5.8c0-.77-.14-1.63-2-1.63h-2.03v-2.74h2.1c1.42 0 1.93-.33 1.93-1.86v-4.94a.8.8 0 0 0-.8-.82c-.28 0-.77.16-.77.82v4.06h-4.99v-3.53c0-1.74.2-4.46 3.7-4.46h4.13c3.49 0 3.71 2.72 3.71 4.46v3.98c0 2.72-1.9 3.45-3.39 3.4v.24c3.35-.08 3.4 2.5 3.4 3.37v5.03c0 1.75-.23 4.45-3.72 4.45h-4.13c-3.5 0-3.7-2.7-3.7-4.45v-4.27h4.99Zm9.82-16.21h11.55v24.93h-4.99v-21.82h-1.57v21.82h-4.99v-24.93Zm19.8 13.71v-10.6h.66c.53 0 .91.45.91 1.25v8.1c0 .8-.38 1.25-.91 1.25h-.66Zm-4.98 11.22h4.98v-8.48h2.86c3.47 0 3.7-2.7 3.7-4.45v-7.54c0-1.74-.23-4.46-3.7-4.46h-7.84v24.93Zm21.37-4.03a.8.8 0 0 1-.8.82.76.76 0 0 1-.78-.82v-16.97c0-.66.5-.82.78-.82.47 0 .8.39.8.82v16.97Zm-6.56-.42c0 1.75.22 4.45 3.7 4.45h4.14c3.48 0 3.7-2.7 3.7-4.45v-16.02c0-1.74-.22-4.46-3.7-4.46h-4.14c-3.48 0-3.7 2.72-3.7 4.46v16.02Zm27.76-20.48h6.5v24.93h-4.98v-15.63h-.19l-2.57 15.63h-3.99l-2.55-15.63h-.18v15.63h-4.99v-24.93h6.48l3.25 17.53 3.22-17.53Zm-103.46-34.07c-1.53-6.69-5.35-12.12-5.88-13a45.27 45.27 0 0 0-5.44 11.36 41.19 41.19 0 0 0-1.36 16.39 45.46 45.46 0 0 0 2.78 10.52 37.27 37.27 0 0 0 4.04 7.25c1.67-2.16 5.5-8.62 6.69-17.04.66-4.7.7-8.8-.83-15.49Zm-5.88 30.85a18.17 18.17 0 0 1-2.03-8.26 17.3 17.3 0 0 1 2.05-8.17c.42.71 1.8 3.72 1.97 7.82.11 4-1.22 7.18-2 8.6Zm5.43-19.52a36.6 36.6 0 0 1-.75 6.87c.14-2.78-.2-6.68-.83-9.75-.64-3.04-2.44-8.15-3.88-10.5-1.33 2.25-2.97 6.66-3.83 10.48a49.17 49.17 0 0 0-.88 9.85c-.23-1.16-.8-5.35-.64-9.54a42.4 42.4 0 0 1 1.38-8.66c1.7-5.46 3.61-8.95 3.97-9.5.36.55 2.77 4.86 4.02 9.37a41.65 41.65 0 0 1 1.44 11.38Z" fill="#0079C2"/><path d="M36.5 47.07h-11.6v7.79l.03-.02a7 7 0 1 1 9.9 9.89c0 .02-.02.02-.03.04-.02 0-.03.02-.04.04a13.97 13.97 0 0 1-9.86 4.04 13.98 13.98 0 1 1 0-27.95v-18.71a24.89 24.89 0 1 0 18.18 41.9v-17.02h-6.57Z" fill="#0079C2"/></svg>