<svg viewBox="0 0 103 57" fill="none" xmlns="http://www.w3.org/2000/svg"><path fill-rule="evenodd" clip-rule="evenodd" d="m2.35 15.43.07 7.56a22.51 22.51 0 0 1 6.57-11.3l-6.64 3.74Zm34.43 31.33c.77 0 1.37.57 1.4 1.3 0 .57-.36 1.07-.87 1.27l-11.86 6.96c-.37.24-.84.27-1.24.04l-11.3-6.6-.04-.04-12.23-6.86a1.18 1.18 0 0 1-.6-1.04l.1-13.1-.14-13.86c-.03-.44.2-.87.6-1.1l11.47-6.47 12.03-7.07c.37-.23.84-.26 1.25-.03l11.3 6.6h.03c.43.23.7.63.7 1.13 0 .74-.57 1.34-1.34 1.34a1.5 1.5 0 0 1-.87-.27 21.73 21.73 0 0 0-10.83-2.6 21.94 21.94 0 0 0-21.52 22.27 21.7 21.7 0 0 0 6.74 15.3 22.08 22.08 0 0 0 21.32 5.23c1.83-.54 3.58-1.3 5.23-2.27l.03-.03c.17-.03.4-.1.64-.1Zm-34.33-13.17-.07 7.57 6.67 3.73-.16-.16c-3.12-3-5.4-6.84-6.44-11.14Zm15.79 16.54 6.54 3.83 6.57-3.87-.24.07a22.2 22.2 0 0 1-5.93.9c-2.35.06-4.7-.25-6.94-.93Zm13.04-43.77-6.57-3.83-6.57 3.86c2-.58 4.05-.9 6.13-.97 2.01-.02 4.02.2 5.97.67.37.1.7.17 1.04.27Z" fill="#0B7572"/><path fill-rule="evenodd" clip-rule="evenodd" d="M31.35 16.33c.57.3.77 1.03.47 1.6a1.2 1.2 0 0 1-1.61.46 11.46 11.46 0 0 0-5.67-1.4 11.23 11.23 0 0 0-10.12 15.71 11.2 11.2 0 0 0 6.22 5.96c1.38.54 2.86.8 4.34.77.67 0 1.2.5 1.2 1.16 0 .67-.5 1.2-1.17 1.2a13.72 13.72 0 0 1-12.8-8.14 13.47 13.47 0 0 1-.2-10.42 13.56 13.56 0 0 1 7.25-7.51 13.62 13.62 0 0 1 12.09.6Z" fill="#0B7572"/><path fill-rule="evenodd" clip-rule="evenodd" d="M15.56 15.26c.23-.17.53-.1.7.13a.5.5 0 0 1-.13.7c-2 1.4-3.63 3.26-4.73 5.44a14.8 14.8 0 0 0 2.98 17.43l.04.03a14.77 14.77 0 0 0 14.48 3.5 14.8 14.8 0 0 0 3.59-1.56c.23-.14.57-.07.7.16.13.24.07.57-.17.7a16.2 16.2 0 0 1-7.94 2.3c-4.22.1-8.31-1.48-11.37-4.4l-.03-.03a15.63 15.63 0 0 1-4.9-11.13 16.2 16.2 0 0 1 1.71-7.5 16.68 16.68 0 0 1 5.07-5.77Z" fill="#0B7572"/><path fill-rule="evenodd" clip-rule="evenodd" d="M20.08 28.76c-.03 0-.06-.23-.06-.5s.03-.5.06-.5h4.16v-4.6c0-.03.23-.07.5-.07s.5.04.5.07v4.6h4.16c.04 0 .07.23.07.5s-.03.5-.07.5h-4.15v4.6c0 .03-.24.07-.5.07-.28 0-.51-.04-.51-.07v-4.6h-4.16Zm37.04-11.44h-15.24c-.58 0-.92.2-.92.92v18.9c0 .72.34.9.92.9h3.16c.61 0 .92-.18.92-.9v-15.4h7.08v15.4c0 .72.35.9.92.9h3.16c.58 0 .92-.18.92-.9v-18.9c0-.73-.34-.92-.92-.92Zm20.25 22.37c0 .72.34.91.92.91h2.62c.58 0 .92-.19.92-.91v-5.41c0-.57-.2-.92-.92-.92h-1.54v-15.12c0-.73-.35-.92-.93-.92h-12.2c-.57 0-.92.2-.92.92l-1 13.03c-.08 1.18-.39 2.1-2.12 2.1-.73 0-.92.33-.92.9v5.42c0 .72.34.91.92.91h2.66c.58 0 .92-.19.92-.91v-1.98h11.63v1.98h-.04Zm-8.16-8.16.8-9.94h4.55v12h-6.62c.77-.27 1.19-.92 1.27-2.06Zm30.83-4.23c.26-.11 2.3-1.14 2.3-4.3 0-2.93-2.23-5.68-7.39-5.68h-8.89c-.73 0-.92.35-.92.92v18.9c0 .56.2.9.92.9h9.36c4.42 0 7.58-2.05 7.58-6.05a5.06 5.06 0 0 0-2.96-4.69Zm-4.59 6.25h-5.34v-11.8h4.85c1.65 0 2.65.34 2.65 1.75 0 1.21-.8 1.86-2.65 1.86h-.43c-.73 0-.92.34-.92.92v2.4c0 .57.2.91.92.91h.73c1.54 0 2.66.46 2.66 1.9 0 1.45-.89 2.06-2.46 2.06Z" fill="#0B7572"/></svg>