<svg viewBox="0 0 79 44" fill="none" xmlns="http://www.w3.org/2000/svg"><path fill-rule="evenodd" clip-rule="evenodd" d="m1.8 11.83.05 5.8a17.27 17.27 0 0 1 5.04-8.66l-5.09 2.86Zm26.4 24.03c.6 0 1.06.44 1.09 1 0 .44-.29.82-.67.97l-9.1 5.35a.9.9 0 0 1-.95.02l-8.67-5.06-.03-.03-9.38-5.26a.9.9 0 0 1-.46-.8l.07-10.04-.1-10.64a.9.9 0 0 1 .46-.84l8.8-4.96 9.23-5.42a.9.9 0 0 1 .95-.03l8.66 5.06h.03c.33.18.54.49.54.87 0 .57-.44 1.03-1.03 1.03-.24 0-.47-.07-.67-.2a16.67 16.67 0 0 0-8.3-2 16.83 16.83 0 0 0-16.5 17.08 16.65 16.65 0 0 0 5.16 11.73 16.94 16.94 0 0 0 20.36 2.28l.03-.03c.13-.03.3-.08.49-.08Zm-26.32-10.1-.05 5.81 5.11 2.86-.12-.13a17.61 17.61 0 0 1-4.94-8.53Zm12.1 12.69 5.02 2.94 5.04-2.97-.18.05c-1.46.44-3 .67-4.55.7-1.8.04-3.6-.2-5.32-.72Zm10.01-33.57-5.04-2.94-5.04 2.96a19.2 19.2 0 0 1 4.7-.74 18.5 18.5 0 0 1 4.58.51l.8.2Z" fill="#FFCE50"/><path fill-rule="evenodd" clip-rule="evenodd" d="M24.04 12.52c.44.23.6.8.36 1.23a.92.92 0 0 1-1.23.36 8.8 8.8 0 0 0-4.35-1.08 8.61 8.61 0 1 0 .33 17.2.9.9 0 0 1 .93.9.9.9 0 0 1-.9.92 10.52 10.52 0 0 1-9.82-6.24 10.33 10.33 0 0 1-.15-8 10.4 10.4 0 0 1 5.57-5.75 10.45 10.45 0 0 1 9.26.46Z" fill="#FFCE50"/><path fill-rule="evenodd" clip-rule="evenodd" d="M11.93 11.7a.4.4 0 0 1 .54.1c.13.18.08.41-.1.54a11.28 11.28 0 0 0-4.86 9.54 11.35 11.35 0 0 0 3.52 8l.03.03a11.33 11.33 0 0 0 11.1 2.68c.95-.28 1.88-.66 2.76-1.2.18-.1.43-.05.53.13.1.18.06.43-.12.53a12.43 12.43 0 0 1-6.1 1.77 12.23 12.23 0 0 1-8.71-3.38l-.03-.02a11.99 11.99 0 0 1-3.75-8.54c-.05-2.02.44-3.99 1.3-5.75a12.8 12.8 0 0 1 3.9-4.43Z" fill="#FFCE50"/><path fill-rule="evenodd" clip-rule="evenodd" d="M15.4 22.06c-.02 0-.05-.18-.05-.39 0-.2.03-.38.05-.38h3.2v-3.53c0-.02.17-.05.38-.05.2 0 .38.03.38.05v3.53h3.2c.02 0 .04.18.04.38s-.02.39-.05.39h-3.19v3.53c0 .02-.18.05-.38.05s-.39-.03-.39-.05v-3.53h-3.19Zm28.41-8.77h-11.69c-.44 0-.7.14-.7.7v14.5c0 .55.26.7.7.7h2.42c.48 0 .71-.15.71-.7v-11.81h5.43v11.8c0 .56.27.7.71.7h2.42c.45 0 .71-.14.71-.7v-14.5c0-.55-.27-.7-.7-.7Zm15.53 17.15c0 .55.26.7.7.7h2.01c.45 0 .71-.15.71-.7v-4.15c0-.44-.14-.7-.7-.7h-1.19v-11.6c0-.56-.26-.7-.7-.7h-9.36c-.44 0-.71.14-.71.7l-.77 10c-.06.9-.3 1.6-1.62 1.6-.56 0-.71.26-.71.7v4.15c0 .55.27.7.7.7h2.05c.44 0 .7-.15.7-.7v-1.52h8.92v1.52h-.03Zm-6.26-6.26.62-7.62h3.48v9.2h-5.07c.59-.2.91-.7.97-1.58Zm23.65-3.24c.2-.09 1.77-.88 1.77-3.3 0-2.25-1.71-4.35-5.67-4.35h-6.82c-.56 0-.7.26-.7.7v14.49c0 .44.14.7.7.7h7.17c3.4 0 5.82-1.58 5.82-4.64a3.88 3.88 0 0 0-2.27-3.6Zm-3.52 4.8h-4.1v-9.06h3.72c1.27 0 2.04.26 2.04 1.34 0 .94-.62 1.43-2.04 1.43h-.33c-.56 0-.7.27-.7.7v1.84c0 .44.14.7.7.7h.57c1.18 0 2.03.36 2.03 1.47 0 1.1-.68 1.57-1.89 1.57Z" fill="#FFCE50"/></svg>