<svg viewBox="0 0 182 50" fill="none" xmlns="http://www.w3.org/2000/svg"><path d="M48.03 1.27h-48.03v48h48.03v-48Z" fill="#ED1A3A"/><path d="M40.28 6.05c-1.1 0-1.94.73-2.36 1.6l-6.05 9.96a7.3 7.3 0 0 0-.72 2.64c0 .61.08 1.15.3 1.65l6.55 15.62h-25.4c-.92 0-1.68-.92-1.68-1.76v-26.91c-.19-3.68-5.48-3.68-5.6.11l.12 28.56c0 3.1 2.4 5.6 5.48 5.6h34.64l-8.44-21.6c-.23-.8-.34-1.53.23-2.49l5.59-9.08c.07-.19.19-.99.19-1.22-.11-1.65-1.4-2.76-2.85-2.68Zm-13.72.01c-1.36 0-2.71.95-2.71 2.79v19.25c0 2.8-3.77 2.57-3.77 0v-19.25c0-3.68-5.44-3.68-5.44 0v19.4a7.15 7.15 0 0 0 7.27 7.4 7.16 7.16 0 0 0 7.38-7.4v-19.4c0-1.88-1.37-2.8-2.73-2.79Z" fill="#fff"/><path d="M57.45 6.9v12.7c0 3.18-.33 4.95-2.91 4.95-.49 0-.81 0-1.3-.18v5.47c.97.36 1.62.36 2.43.36 7.27 0 7.6-5.47 7.6-8.65v-9.17h4.2v17.46h5.8v-22.93h-15.82Zm17.77 0 7.91 16.6-2.9 6.34h6.3l9.36-22.93h-6.3l-3.39 9.7-4.04-9.7h-6.94Zm22.45 22.94h5.82v-9.88l5.98 9.88h7.42l-8.23-11.82 8.08-11.11h-6.95l-6.3 9.7v-9.7h-5.82v22.93Z" fill="#000"/><path d="M126.43 30.55c7.75 0 11.3-6 11.3-12.18 0-6-3.55-12-11.3-12-7.6 0-11.15 6-11.15 12 0 6.18 3.55 12.18 11.15 12.18Zm0-5.47c-2.59 0-5.17-2.3-5.17-6.7 0-4.42 2.58-6.53 5.17-6.53 2.74 0 5.33 2.11 5.33 6.52s-2.59 6.7-5.33 6.7Zm14.22-18.18v22.94h5.65l8.07-13.76v13.76h5.66v-22.93h-5.66l-8.07 13.76v-13.76h-5.66Zm9.85-1.23c2.42 0 4.84-.88 5.98-3.53l-3.4-1.4c-.48 1.76-1.94 1.93-2.58 1.93-.49 0-2.1-.17-2.43-1.94l-3.39 1.41c.97 2.65 3.56 3.53 5.82 3.53Zm15.67 1.23v12.7c0 3.18-.33 4.95-2.91 4.95-.48 0-.8 0-1.3-.18v5.47a6.1 6.1 0 0 0 2.43.36c7.27 0 7.6-5.47 7.6-8.65v-9.17h4.2v17.46h5.81v-22.93h-15.83Zm-112.87 35.81h.81v-4.25h4.78v4.25h.82v-8.34h-.82v3.42h-4.78v-3.42h-.82v8.34Zm8.5 0h4.47v-.67h-3.66v-3.67h3.52v-.67h-3.52v-2.66h3.66v-.67h-4.48v8.34Zm9.87 0h.8v-1.15h.35c2.7 0 3.81-1.6 3.81-3.26 0-1.96-1.45-3.26-3.81-3.26h-.34v-1h-.81v1h-.33c-2.38 0-3.83 1.3-3.83 3.26 0 1.67 1.12 3.26 3.83 3.26h.33v1.15Zm.8-7c2.71.04 3.3 1.3 3.3 2.59 0 2-1.32 2.52-3.3 2.6v-5.19Zm-.8 5.18c-1.97-.07-3.3-.59-3.3-2.6 0-1.28.59-2.54 3.3-2.58v5.18Zm7.92 1.82h.78v-7.67h2.22v-.67h-5.22v.67h2.22v7.67Zm3.97 0h.92l2.22-3.66h.7v3.66h.83v-8.34h-1.93c-2.52 0-2.89 1.67-2.89 2.41 0 1.41 1.1 2.27 2.4 2.22l-2.25 3.71Zm3.84-4.34h-1.18c-.67 0-2-.07-2-1.67 0-1.54 1.41-1.66 2.08-1.66h1.1v3.33Zm2.92 4.34h.82v-4.25h4.78v4.25h.82v-8.34h-.82v3.42h-4.78v-3.42h-.82v8.34Zm7.61 0h.82l1.15-2.7h3.52l1.15 2.7h.81l-3.74-8.56-3.7 8.56Zm2.27-3.37 1.44-3.4 1.48 3.4h-2.92Zm6.13 3.37h.92l2.22-3.66h.7v3.66h.82v-8.34h-1.92c-2.52 0-2.89 1.67-2.89 2.41 0 1.41 1.1 2.27 2.4 2.22l-2.25 3.71Zm3.84-4.34h-1.18c-.67 0-2-.07-2-1.67 0-1.54 1.41-1.66 2.08-1.66h1.1v3.33Zm5.69 4.34h.81v-4.04l3.75 4.04h1.06l-4.03-4.3 3.97-4.04h-1l-3.75 3.9v-3.9h-.81v8.34Zm10.91.26a4.36 4.36 0 0 0 4.51-4.41c0-2.63-2.03-4.4-4.52-4.4a4.34 4.34 0 0 0-4.48 4.4 4.35 4.35 0 0 0 4.48 4.41Zm0-.7a3.57 3.57 0 0 1-3.63-3.71 3.6 3.6 0 0 1 3.63-3.74 3.62 3.62 0 0 1 3.66 3.74 3.6 3.6 0 0 1-3.67 3.7Zm5.64.44h.79l.77-6.16 3.07 6.54 3.04-6.54.82 6.16h.74l-1.15-8.67-3.45 7.45-3.48-7.45-1.15 8.67Zm10.77-8.34v8.34h.81v-7.67h4.78v7.67h.82v-8.34h-6.41Zm7.61 8.34h.82l1.14-2.7h3.52l1.15 2.7h.82l-3.74-8.56-3.71 8.56Zm2.26-3.37 1.45-3.4 1.48 3.4h-2.93Zm6.35 3.37h.82v-4.25h4.78v4.25h.82v-8.34h-.82v3.42h-4.78v-3.42h-.82v8.34Zm8.5-8.34v8.72l5.72-6.98v6.6h.8v-8.67l-5.7 6.93v-6.6h-.82Zm8.36 8.34h.93l2.22-3.66h.7v3.66h.82v-8.34h-1.92c-2.53 0-2.9 1.67-2.9 2.41 0 1.41 1.11 2.27 2.4 2.22l-2.25 3.71Zm3.85-4.34h-1.18c-.67 0-2-.07-2-1.67 0-1.54 1.4-1.66 2.08-1.66h1.1v3.33Z" fill="#000"/></svg>