<svg viewBox="0 0 77 94" fill="none" xmlns="http://www.w3.org/2000/svg"><path d="M65.15 11.85a37.57 37.57 0 0 0-26.65-11.04 37.57 37.57 0 0 0-26.65 11.04 37.57 37.57 0 0 0-11.04 26.65 37.57 37.57 0 0 0 11.04 26.65 37.57 37.57 0 0 0 26.65 11.04 37.57 37.57 0 0 0 26.65-11.04 37.57 37.57 0 0 0 11.04-26.65 37.56 37.56 0 0 0-11.04-26.65Z" fill="#fff"/><path d="M0 38.5a38.5 38.5 0 0 1 38.5-38.5v.8a37.57 37.57 0 0 0-26.65 11.05 37.57 37.57 0 0 0-11.04 26.65 37.57 37.57 0 0 0 11.04 26.65 37.57 37.57 0 0 0 26.65 11.04c10.4 0 19.83-4.22 26.65-11.04a37.57 37.57 0 0 0 11.04-26.65 37.57 37.57 0 0 0-11.04-26.65 37.57 37.57 0 0 0-26.65-11.04v-.81a38.5 38.5 0 1 1-38.5 38.5Z" fill="#C5C9CC"/><path d="m38.5 27.51.26-.07c-12.95 4.01-23.19 10.9-23.4 15.95-.22 5.41 11.13 6.68 25.35 2.84 14.23-3.84 25.94-11.35 26.17-16.76.12-2.8-2.88-4.5-7.77-4.94 5.98.27 9.72 2 9.72 5.12 0 5.93-13.58 14.59-30.33 19.33-16.75 4.75-30.33 3.8-30.33-2.14 0-5.93 13.58-14.58 30.33-19.33Z" fill="#A0A4A7"/><path d="m14.11 58.68 42.05-40.36-3.81 31.73-6.95-7.96-31.29 16.6Z" fill="#E63F3F"/><path d="M2.7 88.45c.75 0 1.27-.11 1.58-.38.3-.24.47-.67.47-1.25 0-1.1-.7-1.66-2.11-1.66h-.76v3.3h.83Zm-.02.69h-.8v3.77h-.77v-8.43h1.45c.93 0 1.66.17 2.22.54.53.35.8.94.8 1.74 0 .94-.27 1.55-.8 1.88-.54.34-1.24.5-2.1.5Zm8.17 3.33c.7 0 1.3-.16 1.88-.5a3.64 3.64 0 0 0 1.82-3.22c0-.6-.13-1.19-.41-1.77a3.47 3.47 0 0 0-3.26-2.01c-.56 0-1.12.13-1.7.41a3.6 3.6 0 0 0-2 3.32 3.63 3.63 0 0 0 1.78 3.23c.56.37 1.19.54 1.89.54Zm0 .66a5.1 5.1 0 0 1-2.22-.51 4 4 0 0 1-1.66-1.53 4.54 4.54 0 0 1-.62-2.4 4.16 4.16 0 0 1 2.36-3.86 4.72 4.72 0 0 1 4-.2 4.4 4.4 0 0 1 2.33 2.37c.22.56.32 1.13.32 1.74 0 .88-.19 1.65-.6 2.32-.4.67-.96 1.18-1.64 1.53-.69.36-1.44.54-2.27.54Zm9.99-8.16c-.73 0-1.39.16-1.93.47-.55.3-.96.74-1.25 1.3-.3.58-.45 1.23-.45 1.98 0 1.15.34 2.06 1 2.73.65.67 1.52 1 2.6 1 .93 0 1.83-.33 2.7-1v.9c-.4.24-.82.41-1.28.54a5.6 5.6 0 0 1-3.47-.16 3.65 3.65 0 0 1-1.68-1.35 4.28 4.28 0 0 1-.71-2.62c0-.8.16-1.54.46-2.23.3-.67.79-1.2 1.46-1.62a4.81 4.81 0 0 1 2.56-.62c.95 0 1.87.29 2.72.9l-.02.83a6.32 6.32 0 0 0-1.11-.73 3.53 3.53 0 0 0-1.6-.32Zm3.99 7.94v-8.43h.77v3.94l3.8-3.94h1l-3.99 4.05 4.2 4.38h-1.1l-3.91-4.27v4.27h-.77Zm10.93-.44a3.62 3.62 0 0 0 3.2-1.82c.33-.57.5-1.2.5-1.9 0-.6-.14-1.19-.4-1.77a3.5 3.5 0 0 0-3.26-2.01 3.85 3.85 0 0 0-3.15 1.68 3.65 3.65 0 0 0-.57 2.05c0 .67.16 1.3.46 1.86.31.57.75 1.04 1.33 1.37.55.37 1.2.54 1.9.54Zm0 .66c-.78 0-1.53-.18-2.21-.51a4 4 0 0 1-1.66-1.53 4.41 4.41 0 0 1-.63-2.4c0-.9.22-1.66.64-2.33.44-.66 1-1.17 1.7-1.53a4.78 4.78 0 0 1 4.03-.2 4.23 4.23 0 0 1 2.32 2.36 4.78 4.78 0 0 1-.28 4.07 4.03 4.03 0 0 1-1.64 1.53c-.68.36-1.44.54-2.27.54Zm10-8.16c-.75 0-1.4.16-1.94.47-.54.3-.97.74-1.26 1.3a4.34 4.34 0 0 0-.43 1.98c0 1.15.32 2.06.99 2.73.65.67 1.51 1 2.59 1 .95 0 1.85-.33 2.7-1v.9c-.4.24-.82.41-1.27.54a5.72 5.72 0 0 1-3.47-.16c-.66-.24-1.2-.7-1.67-1.35a4.27 4.27 0 0 1-.72-2.62c0-.8.15-1.54.45-2.23.31-.67.79-1.2 1.47-1.62a4.74 4.74 0 0 1 2.57-.62c.94 0 1.85.29 2.7.9v.83a7.6 7.6 0 0 0-1.13-.73 3.47 3.47 0 0 0-1.59-.32Zm7.9 8.24-2.96-6.74-.64 6.44h-.78l1.15-8.8 3.23 7.52 3.35-7.52 1.1 8.8h-.81l-.61-6.44-3.03 6.74Zm9.52-.74c.69 0 1.31-.16 1.87-.5.56-.31 1-.76 1.34-1.32a4.06 4.06 0 0 0 .07-3.67 3.47 3.47 0 0 0-3.26-2.01 3.83 3.83 0 0 0-3.13 1.68 3.65 3.65 0 0 0-.57 2.05 3.73 3.73 0 0 0 3.68 3.77Zm0 .66c-.8 0-1.53-.18-2.23-.51a4.19 4.19 0 0 1-1.66-1.53 4.53 4.53 0 0 1-.6-2.4 4.15 4.15 0 0 1 2.34-3.86 4.72 4.72 0 0 1 5.41.75c.4.4.7.88.92 1.42a4.78 4.78 0 0 1-.27 4.06 3.99 3.99 0 0 1-1.65 1.53 4.8 4.8 0 0 1-2.26.54Zm10-8.16c-.75 0-1.4.16-1.94.47-.54.3-.97.74-1.26 1.3a4.34 4.34 0 0 0-.45 1.98c0 1.15.34 2.06 1 2.73.66.67 1.52 1 2.6 1a4.4 4.4 0 0 0 2.7-1v.9c-.4.24-.82.41-1.27.54a5.66 5.66 0 0 1-3.47-.16 3.65 3.65 0 0 1-1.69-1.35 4.37 4.37 0 0 1-.71-2.62c0-.8.16-1.54.46-2.23.31-.67.79-1.2 1.47-1.62a4.74 4.74 0 0 1 2.57-.62c.94 0 1.85.29 2.7.9l-.02.83c-.31-.26-.69-.5-1.11-.73a3.47 3.47 0 0 0-1.59-.32Z" fill="#A0A4A7" stroke="#A0A4A7" stroke-width=".216" stroke-miterlimit="2.414"/></svg>