<svg viewBox="0 0 145 52" fill="none" xmlns="http://www.w3.org/2000/svg"><path fill-rule="evenodd" clip-rule="evenodd" d="m9.87 0-2.47 6.76h34.22l2.47-6.76h-34.22Zm-3.7 10.14-2.47 6.77h34.21l2.47-6.77h-34.21Zm-3.7 10.15-2.47 6.76h34.22l2.46-6.76h-34.21Z" fill="#009FDF"/><mask id="a" style="mask-type:alpha" maskUnits="userSpaceOnUse" x="51" y="10" width="94" height="42"><path d="M51.34 51.7h93.66v-41.43h-93.66v41.43Z" fill="#fff"/></mask><g mask="url(#a)"><path fill-rule="evenodd" clip-rule="evenodd" d="M72.74 29.63v.14a14.3 14.3 0 0 1 3.84 2.22c2.42 2 3.49 4.66 3.49 8.1 0 5.67-2.99 9.75-7.9 11.04-1.5.43-3.05.58-5.97.58h-14.86v-41.44h13.15c2.7 0 4.55.15 6.19.58 4.77 1.29 7.9 4.58 7.9 9.82 0 2.8-1 5.16-2.64 6.73a9.97 9.97 0 0 1-3.2 2.23Zm-13.15 4.37v10.9h5.69c1.7 0 3.27-.15 4.4-1.22a5.43 5.43 0 0 0 1.64-4.23c0-1.36-.36-2.66-1.07-3.59-1.2-1.5-2.7-1.86-5.26-1.86h-5.4Zm-.08-7.17h4.63c1.42 0 2.13 0 2.84-.21 1.92-.58 3.13-2.3 3.13-4.66 0-2.8-1.28-4.02-3.13-4.59-.78-.21-1.56-.29-3.13-.29h-4.34v9.75Zm32.93 24.88v-34.48h-11.87v-6.96h33l-2.35 6.96h-10.53v34.48h-8.25Zm23.69 0v-41.44h26.74l-2.35 6.96h-16.22v9.17h6.62c5.33 0 8.1 1.3 10.03 2.94 1.5 1.29 4.05 4.16 4.05 9.82 0 5.6-2.63 8.67-4.84 10.25-2.56 1.8-5.26 2.3-10.73 2.3h-13.3Zm8.18-6.96h6.18c2.35 0 3.77-.57 4.77-1.86.5-.65 1.2-1.8 1.2-3.95 0-2.15-.7-3.65-2.13-4.73-.85-.64-1.99-1-3.9-1h-6.13v11.54Z" fill="#0A2973"/></g></svg>