<svg viewBox="0 0 67 39" fill="none" xmlns="http://www.w3.org/2000/svg"><path d="m21.76 30.36 20.58 8.6v-20.95l-20.58-7.65v20Zm36.38-10.96-5.73 2.06v-5.8l-7.57 2.64v20.66l21.31-8.6v-19.63l-8.01 2.87v5.8Zm-6.84 14.85-.88.37v-4.63l.88-.3v4.56Zm1.55-.59-.89.37v-4.63l.89-.3v4.56Zm3.08-1.25-.88.3v-4.56l.88-.3v4.56Zm1.55-.66-.88.37v-4.48l.88-.3v4.41Zm3.08-5.66.89-.3v4.35l-.89.36v-4.4Zm-1.76.66.88-.29v4.41l-.88.37v-4.49Zm-.66-16.02 8.01-2.94-22.2-7.79-7.13 2.5 21.32 8.08v.15Zm-27.64-6.03-8.74 3.1 22.2 8.08 8.37-3.02-21.83-8.16Zm-30.5 23.74h18.23v-3.67h-16.54l-1.69 3.67Zm3.01-6.46h15.22v-3.68h-13.53l-1.69 3.68Zm3.02-6.69v.3h12.2v-3.68h-10.59l-1.61 3.38Z" fill="#0B7572"/></svg>