<svg viewBox="0 0 21 19" fill="none" xmlns="http://www.w3.org/2000/svg"><path d="M19.42 1.6a5.34 5.34 0 0 0-7.63 0l-10.69 10.85a3.88 3.88 0 0 0 0 5.43 3.74 3.74 0 0 0 5.35 0l10.68-10.85c.84-.85.84-2.25 0-3.1a2.14 2.14 0 0 0-3.05 0l-9.16 9.3a.55.55 0 0 0-.12.6.55.55 0 0 0 .3.3.53.53 0 0 0 .58-.13l9.16-9.3c.43-.43 1.1-.43 1.53 0a1.1 1.1 0 0 1 0 1.55l-10.69 10.85a2.65 2.65 0 0 1-3.81 0 2.75 2.75 0 0 1 0-3.87l10.68-10.85a4.25 4.25 0 0 1 6.1 0 4.41 4.41 0 0 1 0 6.2l-9.15 9.3a.55.55 0 0 0-.12.6.55.55 0 0 0 .3.3.53.53 0 0 0 .58-.13l9.16-9.3a5.54 5.54 0 0 0 0-7.75Z" fill="#fff"/></svg>