<svg viewBox="0 0 20 19" fill="none" xmlns="http://www.w3.org/2000/svg"><path fill-rule="evenodd" clip-rule="evenodd" d="M8 3.75c0 .41-.34.75-.75.75h-6.5a.75.75 0 0 1 0-1.5h6.5c.41 0 .75.34.75.75Z" fill="#fff"/><path fill-rule="evenodd" clip-rule="evenodd" d="M0 18v-15h1.5v15h-1.5Z" fill="#fff"/><path fill-rule="evenodd" clip-rule="evenodd" d="M16 19h-16v-1.5h16v1.5Z" fill="#fff"/><path fill-rule="evenodd" clip-rule="evenodd" d="M15.25 19a.75.75 0 0 1-.75-.75v-6.5a.75.75 0 0 1 1.5 0v6.5c0 .41-.34.75-.75.75Zm.5-19c.41 0 .75.34.75.75v6.5a.75.75 0 0 1-1.5 0v-6.5c0-.41.34-.75.75-.75Z" fill="#fff"/><path fill-rule="evenodd" clip-rule="evenodd" d="M20 3.75c0 .41-.34.75-.75.75h-6.5a.75.75 0 0 1 0-1.5h6.5c.41 0 .75.34.75.75Z" fill="#fff"/></svg>