<svg viewBox="0 0 703 872" fill="none" xmlns="http://www.w3.org/2000/svg"><path d="M636.25 861.71c-47.02-16.51-133.36-77.67-133.36-94.46 0-2.87-10.72-23.6-23.82-46.05-14.64-25.09-31.3-70.58-43.22-117.98-17.5-69.56-19.33-88.36-18.7-191.12.62-98.39-.76-113.97-10.08-113.97-17.7 0-137.36 28.14-150.48 35.38-6.68 3.69-16.71 6.7-22.3 6.7-20.95 0-17.45 13.63 6.41 25l24.73 11.76-3.63 39.48c-2 21.72-5.43 48.17-7.64 58.77-4.75 22.82-6 22.65 57.4 7.78 54.9-12.88 73.22-10.3 68.04 9.57-2.63 10.1-14.99 14.8-56.31 21.4-67.77 10.81-74.64 16.5-69.27 57.38 2.3 17.53 6.12 73.6 8.5 124.59l4.3 92.71-18.55 8.48c-37.75 17.26-66.95-8.23-86.49-75.5-10.83-37.27-10.77-37.75 4.84-37.75 17.25 0 21.5-12.59 26.58-78.59l4.2-54.67-30.74.53c-16.9.3-41.56 4.46-54.79 9.25-25.53 9.26-37.13 25.29-18.3 25.29 32.8 0 33.73 120.05 1.1 141.91-16.05 10.76-39.06 4.99-50.6-12.68-11.24-17.21-11.05-19.58 4.21-50.85 34.32-70.34 31.77-89.47-11.57-86.79-54.05 3.35-47.31-10.24 12.94-26.1 85.73-22.58 82.05-20.22 60.69-38.76-18.98-16.48-40.83-52.66-40.83-67.6 0-5.82 9.42-7.03 31.3-4.02 44.07 6.06 59.19 17.55 64.19 48.78 3.12 19.47 7.3 26.05 15.55 24.45 13.54-2.61 16.13-35 6.88-86.02-9.8-54.08-16.13-57.47-81.13-43.46-64.56 13.92-66.67 14.06-63.34 4.02 2.95-8.88 14.87-13.55 176.84-69.28 65.35-22.48 140.43-49.07 166.84-59.07 50.28-19.05 106.83-23.75 130.81-10.87 13.33 7.16 13.27 7.83-2.82 29.8-9.05 12.37-21.69 34.02-28.08 48.1-11.9 26.24-26.5 110.38-20.81 120.03 1.74 2.95 4.85 25.05 6.9 49.1 4.44 51.72 43.66 175.76 67.62 213.84 16.92 26.9 62.99 71.84 73.63 71.84 11.67 0 42.78-48.38 42.78-66.53 0-22.44 15.46-9 31.5 27.38 17.99 40.82 19.77 86.25 4.49 114.55-9.94 18.4-15.03 18.79-56.4 4.25Zm-266.92-164.44c-22.66-12.34-93.45-80.42-93.72-90.14-.06-2.15-2.73-8.06-5.94-13.14-9.47-14.98-1.17-16.72 42.06-8.77 54.28 9.96 93.76 37.88 106.87 75.56 8.34 23.97 8.49 30.86.89 40.05-11.57 13.99-18.86 13.47-50.16-3.56Zm-85.07-281.66c2.04-16.4 5.73-32.08 8.2-34.86 4.28-4.8 75.21 10.82 82.54 18.17 7.63 7.65-6.21 16.96-37.94 25.53-18.36 4.95-36.37 11.7-40.02 14.99-13.09 11.78-16.44 5.52-12.79-23.83Zm-137.86-173.14c5.77-3.38 37.22-14.13 69.9-23.89 32.68-9.76 78.29-25.76 101.36-35.56 42.85-18.2 68.8-21.52 107.47-13.76 32.16 6.46 26.63 21.37-11.36 30.6-18.26 4.43-58.37 14-89.12 21.26-30.76 7.26-66.91 16.51-80.34 20.56-30.06 9.06-113.17 9.73-97.9.79Zm-40.19-56.77c-19.92-8.03-19.75-9.94 3.5-40.88 44.67-59.47 73.95-122.29 69.9-150l-3.05-20.82 33.28 4.43c18.3 2.44 43.22 7.9 55.36 12.15 19.21 6.72 21.5 10.12 17.63 26.14-5.38 22.3-46.32 92.05-54.02 92.05-3.04 0-5.52 4.8-5.52 10.65 0 14.61 22.29 8.43 105.68-29.31 70.6-31.96 111.6-38.3 135.28-20.93 23.3 17.1 8.58 32.58-31.01 32.58-19.33 0-53.24 6.03-75.36 13.4-22.12 7.38-66.63 17.3-98.9 22.06-35.22 5.19-63.26 13.24-70.13 20.14-10.14 10.17-58.08 36.3-64.47 35.13-1.35-.25-9.52-3.3-18.17-6.79Z" fill="#fff" fill-opacity=".08"/></svg>