<svg viewBox="0 0 44 50" fill="none" xmlns="http://www.w3.org/2000/svg"><path fill-rule="evenodd" clip-rule="evenodd" d="M4.29 14.01a21.93 21.93 0 0 0-4.29 13.06c0 4.9 1.6 9.41 4.29 13.06a45.7 45.7 0 0 1 9.13-2.28 57.43 57.43 0 0 1-.82-15.99l-.74 1.2-5.23-8.25c-.8-.24-1.6-.51-2.34-.79Zm8.33 25.43c-2.66.46-5.14 1.1-7.37 1.9a21.88 21.88 0 0 0 13 7.41 15.71 15.71 0 0 1-3.22-5.34 33.56 33.56 0 0 1-1.3-4.15l-1.1.18Zm2.58-.37a31.3 31.3 0 0 0 1.2 3.8c1.5 3.83 3.48 6.2 5.6 6.2 2.14 0 4.12-2.37 5.62-6.2.45-1.14.85-2.42 1.2-3.8a57.72 57.72 0 0 0-13.6 0h-.02Zm-1.36-12.01c0 3.83.37 7.44 1.03 10.57a59.3 59.3 0 0 1 14.27 0 51.89 51.89 0 0 0 1.04-10.57c0-3.82-.37-7.43-1.04-10.56a59.3 59.3 0 0 1-13.32.1l-.89 1.45-.49.8c-.39 2.54-.6 5.3-.6 8.22Zm2.83-11.84a56.8 56.8 0 0 0 12.13-.16 31.28 31.28 0 0 0-1.2-3.81c-1.5-3.83-3.48-6.2-5.61-6.2-.63 0-1.26.22-1.86.62.03.18.05.37.06.56v.11l.03.29v.36a10 10 0 0 1-1.59 4.98l-1.98 3.24.02.01Zm12.3-4.5c.5 1.25.92 2.64 1.3 4.14a44.04 44.04 0 0 0 8.49-2.07 21.97 21.97 0 0 0-13-7.42 15.7 15.7 0 0 1 3.22 5.34v.01Zm1.61 5.58a53.36 53.36 0 0 1 1.05 10.76c0 3.89-.38 7.55-1.05 10.77.35.05.7.1 1.04.17a45.7 45.7 0 0 1 8.1 2.12 21.93 21.93 0 0 0 4.28-13.07c0-4.89-1.6-9.4-4.29-13.06a45.7 45.7 0 0 1-9.13 2.28v.02Zm-.31 22.97a32 32 0 0 1-1.3 4.14 15.68 15.68 0 0 1-3.21 5.35 21.89 21.89 0 0 0 12.98-7.43 44.98 44.98 0 0 0-8.48-2.07v.01Zm-16.2-31.17a3.3 3.3 0 1 1-4.66-4.66 3.3 3.3 0 1 1 4.66 4.66Zm-.33 9.1-.05.08.05-.08Zm5-10.83v.02-.02Zm-11.96-4.34a7 7 0 0 0-2.06 4.97c0 1.18.64 2.82 1.58 4.6l.04.02c.05.05.1.1.12.17l.64 1 .02.02 4.74 7.48 1.02-1.65.06-.1.76-1.24.06-.1 3.67-5.98c.82-1.64 1.37-3.13 1.37-4.21v-.3l-.02-.23-.01-.06v-.02a7.02 7.02 0 0 0-11.97-4.34l-.02-.03Z" fill="#0B7572"/></svg>