<svg viewBox="0 0 44 47" fill="none" xmlns="http://www.w3.org/2000/svg"><path fill-rule="evenodd" clip-rule="evenodd" d="M42.22 13.84h-40.43a1.8 1.8 0 0 0-1.79 1.8v28.87a1.8 1.8 0 0 0 1.79 1.79h40.43a1.78 1.78 0 0 0 1.78-1.79v-28.88a1.8 1.8 0 0 0-1.78-1.79Zm-19.37 18.78v9.27a.84.84 0 0 1-1.68 0v-9.27a2.3 2.3 0 0 1 .83-4.45 2.3 2.3 0 0 1 .85 4.45Z" fill="#0B7572"/><path fill-rule="evenodd" clip-rule="evenodd" d="M39.95 17.4a17.9 17.9 0 0 0-5.25-12.14 17.9 17.9 0 0 0-25.39 0 17.9 17.9 0 0 0-5.25 12.14h35.89Zm-3.8-3.3a14.5 14.5 0 0 0-3.79-6.5 14.6 14.6 0 0 0-10.36-4.3c-3.9 0-7.6 1.55-10.36 4.3a14.55 14.55 0 0 0-3.77 6.5h28.27Z" fill="#0B7572"/></svg>