<svg viewBox="0 0 40 50" fill="none" xmlns="http://www.w3.org/2000/svg"><path fill-rule="evenodd" clip-rule="evenodd" d="M6.17 36.75h6.9c.45 0 .82.36.82.82v6.9c0 .45-.37.82-.82.82h-6.9a.82.82 0 0 1-.82-.82v-6.9c0-.46.36-.82.82-.82Zm27.44-9.64h-12.65a.82.82 0 1 1 0-1.65h12.65a.82.82 0 1 1 0 1.65Zm-19.2-16.73-6.46 6.46a.82.82 0 0 1-1.3-.15l-1.96-3.39a.82.82 0 0 1 .3-1.12.82.82 0 0 1 1.12.3l1.42 2.47 5.71-5.72a.82.82 0 0 1 1.16 0c.32.32.32.84 0 1.16Zm-4.22-10.38h-9.37a.82.82 0 0 0-.82.82v47.85c0 .46.37.83.82.83h37.38c.45 0 .82-.37.82-.83v-47.85a.82.82 0 0 0-.82-.82h-9.37v4.48c0 .45-.37.82-.82.82h-17a.82.82 0 0 1-.82-.82v-4.48Zm9.95 41.02c0-.46.36-.82.82-.82h12.65a.82.82 0 1 1 0 1.64h-12.65a.82.82 0 0 1-.82-.82Zm-5.74-17.38-6.45 6.45a.82.82 0 0 1-1.3-.15l-1.96-3.38a.82.82 0 0 1 .3-1.13.82.82 0 0 1 1.12.3l1.42 2.47 5.71-5.71a.82.82 0 0 1 1.16 0c.32.32.32.84 0 1.16v-.01Zm6.56-9.79a.82.82 0 1 1 0-1.64h12.65a.82.82 0 1 1 0 1.64h-12.65Z" fill="#0B7572"/><path fill-rule="evenodd" clip-rule="evenodd" d="M28 .03h-16.99v4.45h17v-4.45Z" fill="#0B7572"/></svg>