<svg viewBox="0 0 28 28" fill="none" xmlns="http://www.w3.org/2000/svg"><path d="M27 16.34a13.37 13.37 0 0 0-.82-7.56 13.2 13.2 0 0 0-14.68-7.86 7.82 7.82 0 0 0-10.52 10.73 13.4 13.4 0 0 0 .85 7.44 13.2 13.2 0 0 0 14.5 7.9 7.8 7.8 0 0 0 11.67-6.84c0-1.33-.34-2.65-1-3.81Zm-12.94 5.71c-4.7 0-6.8-2.31-6.8-4.05 0-.89.66-1.51 1.56-1.51 2.01 0 1.49 2.9 5.24 2.9 1.92 0 2.98-1.05 2.98-2.12 0-.65-.32-1.36-1.58-1.67l-4.18-1.05c-3.36-.84-3.97-2.67-3.97-4.38 0-3.56 3.34-4.9 6.48-4.9 2.89 0 6.3 1.6 6.3 3.74 0 .92-.8 1.45-1.7 1.45-1.71 0-1.4-2.38-4.85-2.38-1.71 0-2.66.78-2.66 1.9 0 1.1 1.35 1.46 2.53 1.73l3.09.68c3.39.76 4.24 2.74 4.24 4.61 0 2.9-2.21 5.05-6.68 5.05Z" fill="#0B7572"/></svg>