<svg viewBox="0 0 47 50" fill="none" xmlns="http://www.w3.org/2000/svg"><path d="M38.28 32.72h-29.64a4.33 4.33 0 0 0-3.08-4.16v-20.1a4.17 4.17 0 0 0 2.89-2.9h13.89a4.3 4.3 0 0 0 2.9 2.9v6.48l-2.6 2.62-1.39-1.4a1.22 1.22 0 0 0-2 .4 1.24 1.24 0 0 0 .27 1.36l1.39 1.39-1.4 1.38a1.24 1.24 0 0 0 1.35 2.02c.15-.06.28-.15.4-.27l1.38-1.38 2.96 2.95a1.22 1.22 0 0 0 1.74 0l3.07-2.97 1.39 1.39a1.24 1.24 0 1 0 1.73-1.75l-1.39-1.39 1.4-1.39a1.24 1.24 0 0 0-1.35-2.02c-.14.07-.28.16-.4.27l-1.38 1.4-2.59-2.6v-6.5a4.32 4.32 0 1 0-5.37-5.37h-13.89a4.32 4.32 0 1 0-5.47 5.38v20.12a4.33 4.33 0 0 0-3.09 4.17v8.64a8.65 8.65 0 0 0 8.64 8.61h29.64a8.64 8.64 0 1 0 0-17.28Zm-9.72-13.43-2.03 2.1-2.07-2.1 2.07-2.08 2.03 2.08Zm9.72 25.77a3.7 3.7 0 1 1-.02-7.42 3.7 3.7 0 0 1 .02 7.42Zm-33.33-3.7a3.7 3.7 0 1 1 7.42-.03 3.7 3.7 0 0 1-7.42.03Zm27.15 0a3.7 3.7 0 1 1-7.41 0 3.7 3.7 0 0 1 7.41 0Zm-9.87 0a3.7 3.7 0 1 1-7.42 0 3.7 3.7 0 0 1 7.42 0Z" fill="#0B7572"/><path d="M8.64 42.6a1.24 1.24 0 1 0 0-2.47 1.24 1.24 0 0 0 0 2.47Zm9.88 0a1.24 1.24 0 1 0 0-2.47 1.24 1.24 0 0 0 0 2.47Zm9.88 0a1.24 1.24 0 1 0 0-2.47 1.24 1.24 0 0 0 0 2.47Zm9.88 0a1.24 1.24 0 1 0 0-2.47 1.24 1.24 0 0 0 0 2.47Z" fill="#0B7572"/></svg>