<svg viewBox="0 0 33 19" fill="none" xmlns="http://www.w3.org/2000/svg"><path d="M27.38 10.9c-.53-.67-.38-.97 0-1.56.01 0 4.42-6.01 4.87-8.05.23-.74 0-1.29-1.09-1.29h-3.6c-.93 0-1.35.47-1.58 1 0 0-1.83 4.33-4.43 7.15-.84.8-1.23 1.07-1.69 1.07-.22 0-.57-.26-.57-1v-6.93c0-.9-.26-1.29-1.02-1.29h-5.67c-.58 0-.92.42-.92.8 0 .85 1.3 1.04 1.43 3.42v5.15c0 1.13-.2 1.34-.67 1.34-1.22 0-4.2-4.36-5.96-9.35-.36-.97-.7-1.36-1.63-1.36h-3.61c-1.03 0-1.24.47-1.24 1 0 .92 1.23 5.52 5.7 11.6 2.99 4.15 7.19 6.4 11.01 6.4 2.3 0 2.58-.5 2.58-1.36 0-3.96-.2-4.34.94-4.34.54 0 1.46.26 3.6 2.26 2.45 2.38 2.86 3.44 4.23 3.44h3.6c1.03 0 1.56-.5 1.26-1.48-.69-2.08-5.33-6.34-5.54-6.62Z" fill="#BFBFC7"/></svg>