<svg viewBox="0 0 28 28" fill="none" xmlns="http://www.w3.org/2000/svg"><path fill-rule="evenodd" clip-rule="evenodd" d="M14 0a13.99 13.99 0 0 0-11.53 21.94.7.7 0 0 1 .09.6l-1.42 4.76 4.66-1.6a.7.7 0 0 1 .6.07 13.99 13.99 0 0 0 21.6-11.77c0-7.74-6.26-14-14-14Zm-5.73 6.1 2.55 4.21-1.06 1.05a.7.7 0 0 0-.11.85c1.62 2.8 3.53 4.98 6.22 6.16a.7.7 0 0 0 .78-.14l1.12-1.12 4.12 2.57a3.89 3.89 0 0 1-1.73 1.99 4.2 4.2 0 0 1-2.85.26c-2.19-.45-4.84-2.18-7-4.39-2.15-2.2-3.82-4.89-4.25-7.07a4.11 4.11 0 0 1 .28-2.78c.35-.64.94-1.2 1.93-1.59Z" fill="#0B7572"/></svg>